<?xml version="1.0" encoding="utf-8"?>
<!-- Generator: Adobe Illustrator 26.1.0, SVG Export Plug-In . SVG Version: 6.00 Build 0)  -->
<svg version="1.1" id="Layer_1" xmlns="http://www.w3.org/2000/svg" xmlns:xlink="http://www.w3.org/1999/xlink" x="0px" y="0px"
	 viewBox="0 0 566.9 182.7" style="enable-background:new 0 0 566.9 182.7;" xml:space="preserve">
<g>
	<path d="M99.2,133.8c0-40.9,0-81.7,0-122.6c1.4-0.5,11.8-0.6,15-0.2c0.4,1.6,0.6,118.2,0.2,122.8
		C112.9,134.2,101.2,134.3,99.2,133.8z"/>
	<path d="M486.3,134c-4.9,0-9.9,0-14.8,0c-0.4-1.5-0.5-120.4-0.1-123c4.9,0,9.8,0,14.8,0C486.5,12.4,486.7,130.9,486.3,134z"/>
	<path d="M79.8,10.9c5.1,0,10,0,15,0c0,41,0,81.9,0,122.9c-1.5,0.4-12.8,0.5-15,0.1C79.8,92.9,79.8,52,79.8,10.9z"/>
	<path d="M451.6,10.9c5.1,0,10,0,15,0c0,41,0,81.9,0,122.9c-1.5,0.4-12.9,0.5-15,0.1C451.6,92.9,451.6,52,451.6,10.9z"/>
	<path d="M490.9,23.6c5.1,0,10,0,15.1,0c0,32.5,0,65,0,97.7c-5,0.2-10,0.1-15.1,0.1C490.9,88.7,490.9,56.3,490.9,23.6z"/>
	<path d="M60.2,23.6c5,0,10,0,15.1,0c0,32.6,0,65.1,0,97.7c-5,0-10,0-15.1,0C60.2,88.7,60.2,56.2,60.2,23.6z"/>
	<path d="M40.5,36.2c5.1,0,10,0,15.1,0c0,24.1,0,48.2,0,72.5c-5,0.2-10,0.1-15.1,0.1C40.5,84.5,40.5,60.5,40.5,36.2z"/>
	<path d="M510.5,108.6c0-24.2,0-48.3,0-72.4c5,0,9.9,0,14.7,0c0.4,1.5,0.6,68.9,0.2,72.4C520.5,108.6,515.6,108.6,510.5,108.6z"/>
	<path d="M425.1,70.4c0,1.1,0,2.3,0,3.3c-1.9,0-3.7,0-5.5,0c-38.6,0-77.1,0-115.7,0c-27,0-54-0.1-81.1-0.1
		c-16.9,0-33.9,0.1-50.8,0.1c-5.9,0-11.9-0.1-17.8-0.1c-3.3,0-6.6,0.1-9.9,0.2c-1.3,0-2.6,0.3-4.1,0.4c0-1.4,0-2.6,0-4
		c0.3,0,0.5-0.2,0.8-0.1c4.5,0.7,8.9,0.4,13.4,0.4c0.8,0,1.7,0,2.5,0c77.5,0,155,0,232.5,0C401.2,70.4,413,70.4,425.1,70.4z"/>
	<path d="M36.4,66c0,4.4,0,8.6,0,12.9c-1.5,0.4-16.9,0.6-19.5,0.1c0-4.3,0-8.6,0-12.9C18.3,65.7,33.6,65.6,36.4,66z"/>
	<path d="M549.3,79.1c-6.5,0-12.9,0-19.4,0c0-4.4,0-8.7,0-13c1.4-0.4,16.2-0.6,19.4-0.2C549.3,70.2,549.3,74.5,549.3,79.1z"/>
	<path d="M271.4,52.6c0-1.5,0-2.9,0-4.4c0.6-0.1,1.2-0.3,1.8-0.4c2.9-0.8,4.4-3.2,4.1-6.4c-0.2-2.6-2.4-4.8-5.1-5c-2-0.1-4,0-6.2,0
		c0-1.6,0-3,0-4.5c2.6,0,5.1-0.3,7.6,0.1c5.6,0.7,9.3,5.9,8.7,11.7C281.7,48.6,277.1,53,271.4,52.6z"/>
	<path d="M419.4,166.1c-0.4-2.7-0.7-5.3-1.1-8.5c-2,3-3.2,6-5,8.7c-1,0-1.9,0-3.1,0c-0.7-4.2-1.4-8.3-2.1-12.7c1.1,0,2.1,0,3.1,0
		c0.4,3,0.7,5.9,1.2,9.3c2-3.2,3.3-6.3,5.1-9.3c1,0,2,0,3.1,0c0.4,3,0.7,5.9,1.1,9.1c0.4-0.6,0.7-0.9,0.9-1.3c1.1-2,2.1-4.1,3.2-6.1
		c1.1-2.1,1.1-2.1,3.9-1.6c-0.3,0.6-0.6,1.2-0.9,1.8c-1.6,2.9-3.2,5.7-4.8,8.6C422.5,166.5,422.5,166.5,419.4,166.1z"/>
	<path d="M239.8,31.9c1.7,0,3.2,0,5,0c-1.4,4.1-2.7,8-4.1,12.2c1.2,0.1,2.2,0.2,3.3,0.2c0.5,1.3,0.9,2.5,1.5,4c-2.2,0-4.2,0-6.2,0
		c-0.6,1.6-1.1,3-1.6,4.3c-1.6,0-3.2,0-5,0C235.1,45.6,237.4,38.8,239.8,31.9z"/>
	<path d="M219.5,166.2c-1,0-1.9,0-2.8,0c-0.1-0.3-0.2-0.6-0.3-1c-0.2,0.1-0.4,0.1-0.6,0.2c-0.4,0.2-0.8,0.5-1.3,0.7
		c-3.4,1.3-6.6-0.5-7.3-4c-1-5,3.6-9.8,8.3-8.5c1,0.3,1.9,1,3.1,1.7c0.5-2.1,1-4.4,1.5-6.6c1,0,1.9,0,3,0
		C221.8,154.5,220.7,160.3,219.5,166.2z M217.6,159.5c0-2.1-1.2-3.4-3.1-3.4c-2.3,0-4.2,2-4.1,4.5c0,2.1,1.2,3.3,3.2,3.3
		C215.8,163.9,217.6,161.9,217.6,159.5z"/>
	<path d="M345.3,170.8c-1,0-1.9,0-3,0c1.2-5.8,2.3-11.5,3.4-17.3c1,0,1.8,0,2.8,0c0.1,0.3,0.2,0.7,0.3,1.1c0.2-0.1,0.4-0.1,0.6-0.2
		c0.8-0.3,1.6-0.8,2.5-1c2.2-0.5,4.5,0.5,5.5,2.6c1.2,2.6,1,5.2-0.7,7.5c-1.5,2.2-3.7,3.2-6.3,2.8c-1.3-0.2-2.4-1.1-3.7-1.7
		C346.2,166.6,345.8,168.7,345.3,170.8z M350.6,163.7c2,0.1,3.9-1.5,4.3-3.6c0.3-1.3,0-2.5-1-3.5c-1-0.9-2.3-0.9-3.5-0.5
		c-2.3,0.7-3.5,3.9-2.4,6C348.6,163.2,349.4,163.7,350.6,163.7z"/>
	<path d="M63.9,153.5c-1.7-0.5-3.1-1-4.5-1.2c-1.7-0.3-2.9,0.4-3.1,1.4c-0.2,1,0.4,1.7,2.2,2.4c1,0.4,2.1,0.7,3.2,1.1
		c2.8,1.3,3.6,4.2,1.8,6.8c-1.2,1.7-3.1,2.3-5.1,2.6c-2.7,0.4-5.6-0.7-7.7-2.8c0.5-0.8,0.9-1.6,1.3-2.2c1.7,0.7,3.2,1.6,4.8,2
		c0.9,0.2,2,0.1,2.8-0.3c1.6-0.6,1.6-2.3,0.2-3.2c-0.6-0.4-1.3-0.6-1.9-0.8c-0.7-0.3-1.5-0.4-2.2-0.7c-1.6-0.6-2.8-1.6-3-3.4
		c-0.1-1.9,0.6-3.4,2.2-4.5c2.2-1.5,4.7-1.6,7.3-1c1.1,0.2,2,0.8,3.3,1.3C64.7,151.9,64.3,152.7,63.9,153.5z"/>
	<path d="M297.9,155.2c0.2-0.5,0.3-1,0.6-1.6c0.8,0,1.7,0,2.9,0c-0.5,4.2-1.6,8.3-2.4,12.6c-1,0-1.9,0-2.9,0c-0.1-0.3-0.2-0.6-0.3-1
		c-0.2,0.1-0.4,0.1-0.6,0.2c-0.4,0.2-0.8,0.5-1.3,0.7c-3.4,1.3-6.6-0.5-7.3-4.1c-1-5,3.6-9.8,8.2-8.5
		C295.8,153.8,296.8,154.6,297.9,155.2z M289.8,160.6c0,2.1,1.2,3.3,3.2,3.3c2.3,0,4.1-2,4.1-4.4c0-2.1-1.3-3.5-3.3-3.4
		C291.5,156.2,289.7,158.1,289.8,160.6z"/>
	<path d="M114.3,166.2c-1.1,0-1.9,0-2.8,0c-0.1-0.4-0.2-0.7-0.4-1c-0.2,0.1-0.4,0.1-0.6,0.2c-0.4,0.2-0.7,0.4-1.1,0.6
		c-3.7,1.5-7-0.5-7.5-4.5c-0.5-4,2-7.4,5.8-8.1c2.1-0.4,3.8,0.3,5.3,2.1c0.3-0.8,0.5-1.4,0.7-2c1,0,1.8,0,3,0
		C115.9,157.8,115.1,162,114.3,166.2z M109.2,156.1c-2.2,0-4.1,2-4.2,4.4c0,2.1,1.3,3.5,3.3,3.4c2.2-0.1,4.1-2.1,4.1-4.5
		C112.4,157.5,111.1,156.1,109.2,156.1z"/>
	<path d="M395.1,155.4c0.2-0.6,0.4-1.2,0.6-1.8c0.9,0,1.8,0,3,0c-0.8,4.3-1.7,8.4-2.5,12.5c-2.5,0.5-2.6,0.5-3.2-0.8
		c-0.6,0.3-1.1,0.6-1.7,0.8c-3.7,1.5-7-0.5-7.5-4.4c-0.5-4.1,2-7.6,6-8.2C391.7,153.1,392.9,153.5,395.1,155.4z M394.4,159.4
		c-0.1-2-1.4-3.3-3.3-3.3c-2.3,0-4.2,2.2-4.1,4.6c0.1,2,1.4,3.2,3.4,3.2C392.6,163.8,394.4,161.7,394.4,159.4z"/>
	<path d="M153.9,153.7c-2,1.7-3.7,3.3-5.7,5c1.1,2.4,2.2,4.9,3.4,7.5c-1.3,0-2.4,0-3.6,0c-0.7-1.6-1.5-3.3-2.2-5.1
		c-2.3,1-3.1,2.8-3.3,5.1c-1.1,0-2,0-3.1,0c1.2-5.9,2.3-11.7,3.5-17.6c1,0,1.9,0,3.1,0c-0.6,3.2-1.2,6.4-1.9,9.9
		c0.7-0.5,1.2-0.9,1.7-1.2c1.1-0.9,2.2-1.7,3.2-2.7C150.3,153.2,151.9,153.3,153.9,153.7z"/>
	<path d="M168.5,153.4c2.7,0,4.8,1.2,5.7,3.4c1,2.5,0.4,5.7-1.6,7.5c-2.3,2.2-5.1,2.6-8,1.7c-3.2-1-4.5-4.7-3.2-8.2
		C162.6,155.1,165.2,153.4,168.5,153.4z M171.4,159.6c0-2.2-1.2-3.5-3.3-3.5c-2.3,0-3.9,1.8-3.9,4.2c0,2.2,1.3,3.5,3.3,3.5
		C169.8,163.8,171.4,162,171.4,159.6z"/>
	<path d="M466.2,166.4c-2.8,0-5-1.4-5.8-3.6c-1-2.7-0.1-6,2.1-7.8c2.3-1.8,4.9-2.1,7.5-1.2c3.2,1.1,4.5,4.9,3,8.4
		C471.9,164.9,469.4,166.4,466.2,166.4z M470.5,159.6c0-2.2-1.2-3.5-3.2-3.5c-2.3,0-4,1.7-4,4.2c0,2.2,1.2,3.5,3.2,3.5
		C468.8,163.8,470.5,162.1,470.5,159.6z"/>
	<path d="M322.7,31.9c1.6,0,2.9,0,4.4,0c0,6.9,0,13.7,0,20.7c-1.5,0-2.9,0-4.4,0C322.7,45.7,322.7,38.9,322.7,31.9z"/>
	<path d="M293.6,108.2c-1.5,0-2.8,0-4.3,0c0-6.9,0-13.7,0-20.6c1.5,0,2.8,0,4.3,0C293.6,94.5,293.6,101.2,293.6,108.2z"/>
	<path d="M231.1,153.6c1.2,0,2.1,0,3.1,0c0.6,3,1.1,5.8,1.7,9.1c0.6-0.9,0.9-1.4,1.2-1.9c1-1.8,2-3.7,3.1-5.5
		c1.2-2.1,1.2-2.1,3.9-1.6c-0.1,0.3-0.1,0.5-0.3,0.7c-2.7,4.5-5.4,9-8,13.5c-0.9,1.6-2.1,2.8-4,3.1c-1.5,0.3-2.7-0.1-3.9-1.2
		c0.5-0.7,0.9-1.3,1.4-2c0.4,0.1,0.7,0.2,1,0.3c2,0.3,3.5-1.3,3.1-3.3C232.8,161.2,232,157.5,231.1,153.6z"/>
	<path d="M438.8,153.5c1.1,0,1.9,0,2.8,0c0.2,0.3,0.3,0.7,0.4,0.8c1.3-0.4,2.6-0.9,3.9-1c3.1-0.1,4.9,1.8,4.5,4.9
		c-0.3,2.6-1,5.2-1.5,7.9c-1,0-2,0-3.1,0c0.3-1.8,0.7-3.5,1-5.3c0.1-0.8,0.3-1.5,0.4-2.3c0.1-1.5-0.8-2.3-2.3-2.4
		c-1.8-0.1-3.3,0.9-3.8,2.9c-0.5,1.7-0.8,3.5-1.2,5.3c-0.1,0.6-0.3,1.2-0.4,1.9c-1,0-1.9,0-3,0C437.2,161.9,438,157.8,438.8,153.5z"
		/>
	<path d="M196.1,166.2c-1.1,0-2,0-3.1,0c0.4-2.2,0.8-4.3,1.2-6.4c0.4-2,0.1-2.9-1-3.5c-1.3-0.6-3.2-0.2-4.1,1.2
		c-0.6,0.9-0.9,2-1.2,3.1c-0.5,1.8-0.8,3.7-1.2,5.6c-1,0-1.9,0-3.1,0c0.8-4.3,1.6-8.4,2.5-12.6c1,0,1.9,0,2.8,0
		c0.1,0.3,0.3,0.7,0.4,1.1c1.5-1.1,3.2-1.6,5-1.2c2.4,0.6,3.7,2.3,3.3,4.8C197.2,160.8,196.6,163.4,196.1,166.2z"/>
	<path d="M245.8,32.4c2.3,6.6,4.5,13.3,6.9,20.1c-1.8,0-3.4,0-5.1,0c-1-3-1.9-6.1-3.2-9c-1.2-2.9-1.5-5.7,0-8.6
		c0.4-0.8,0.6-1.7,0.9-2.5C245.5,32.4,245.6,32.4,245.8,32.4z"/>
	<path d="M281.2,92c-1-0.1-1.7-0.1-2.6-0.1c0-1.4,0-2.7,0-4.4c1.6,0,3.1-0.1,4.7,0c0.4,0,0.9,0.5,1,0.9c1.4,3.1,2.8,6.3,4.1,9.4
		c0.1,0.3,0.2,0.7,0.2,1c0,2.9,0,5.9,0,8.8c0,0.1-0.1,0.2-0.4,0.4C285.9,102.7,283.6,97.4,281.2,92z"/>
	<path d="M232.4,95.5c0.2-0.4,0.4-0.6,0.5-0.9c0.7-1.8,0.1-2.7-1.8-2.7c-2,0-3.9,0-5.9,0c-0.7,0-1.4-0.1-2.1-0.1c0-1.4,0-2.7,0-4.1
		c0.5-0.1,0.9-0.2,1.4-0.2c2.5,0,5-0.1,7.5,0c3.2,0.1,5.6,2.2,5.9,5.2c0.1,0.9-0.1,2-0.5,2.8c-0.7,1.6-1.5,1.8-3.2,1
		C233.7,96.2,233.2,95.9,232.4,95.5z"/>
	<path d="M334.5,91.9c0-1.6,0-2.9,0-4.3c3.4,0,6.8-0.2,10.1,0.1c2.7,0.2,4.8,2.8,4.8,5.5c0,1.7-0.7,3.1-2.3,3.9c-1-0.5-2-0.9-3-1.4
		c-0.1-0.2-0.2-0.3-0.1-0.4c1.2-2.5,0.7-3.3-2-3.3C339.5,91.9,337.1,91.9,334.5,91.9z"/>
	<path d="M205,36.3c0-1.6,0-2.9,0-4.3c0.4-0.1,0.8-0.2,1.2-0.2c2.6,0,5.2-0.1,7.7,0c2.9,0.1,5.2,1.9,5.8,4.6c0.5,2.2,0,3.6-2.1,5.1
		c-0.5-0.2-1.1-0.5-1.6-0.8c-0.5-0.2-1-0.5-1.6-0.7c0.2-0.4,0.4-0.7,0.6-1.1c0.5-1.6,0-2.4-1.7-2.5C210.5,36.3,207.9,36.3,205,36.3z
		"/>
	<path d="M204.4,108.2c-1.7,0-3.1,0-4.5,0c-0.4-1.5-0.5-12.1-0.2-15.6c1.5,0,3.1,0,4.7,0C204.4,97.9,204.4,102.9,204.4,108.2z"/>
	<path d="M339.1,108.2c-1.6,0-3,0-4.5,0c0-5.2,0-10.3,0-15.4c1.6,0,3,0,4.5,0C339.1,98,339.1,103,339.1,108.2z"/>
	<path d="M223.2,108.2c0-5.2,0-10.2,0-15.4c1.5,0,2.9,0,4.5,0c0,5.1,0,10.2,0,15.4C226.2,108.2,224.8,108.2,223.2,108.2z"/>
	<path d="M322.8,164c0.4-0.6,0.7-1.1,1.1-1.8c0.9,0.5,1.7,1,2.6,1.3c0.8,0.3,1.6,0.5,2.4,0.4c0.5,0,1.1-0.6,1.4-1
		c0.3-0.7-0.3-1.2-0.9-1.4c-0.8-0.4-1.5-0.7-2.3-1.1c-1.8-0.9-2.5-2-2.4-3.5c0.2-1.6,1.3-2.8,3.1-3.3c2.6-0.7,4.8,0.1,7,1.6
		c-0.5,0.7-0.9,1.3-1.4,2c-0.7-0.3-1.2-0.6-1.8-0.8c-0.7-0.2-1.3-0.5-2-0.5c-0.8-0.1-1.7,0.2-1.7,1.1c0,0.4,0.6,1,1.1,1.3
		c0.8,0.5,1.8,0.8,2.6,1.3c2.6,1.5,2.7,4.7,0,6.2c-0.9,0.5-2,0.7-3,0.7C326.3,166.5,324.6,165.8,322.8,164z"/>
	<path d="M493.4,155.1c-0.1,0.4-0.2,0.6-0.3,0.7c-0.3,0.4-0.6,0.8-1,1.3c-0.7-0.3-1.4-0.7-2.1-0.9c-0.7-0.2-1.5-0.4-2.2-0.3
		c-0.5,0-1.1,0.5-1.2,1c-0.1,0.4,0.4,1,0.8,1.3c0.8,0.5,1.8,0.8,2.6,1.3c1.4,0.7,2.3,1.6,2.2,3.2c-0.1,1.7-1.1,2.8-2.6,3.5
		c-2.5,1-6.1,0.1-8.1-2.1c0.4-0.5,0.7-1.1,1.1-1.6c1.2,0.5,2.2,1.1,3.3,1.5c0.6,0.2,1.3,0.3,1.8,0.1c0.5-0.1,1-0.5,1.2-1
		c0.3-0.7-0.2-1.2-0.8-1.5c-0.8-0.4-1.6-0.8-2.5-1.2c-1.5-0.7-2.3-1.7-2.2-3.4c0.1-1.7,1.1-2.7,2.6-3.2
		C488.8,152.8,491.1,153.6,493.4,155.1z"/>
	<path d="M263.8,155.7c-0.7,0.6-1.2,1.1-1.6,1.5c-1.4-0.4-2.7-0.8-3.9-0.9c-1.5-0.1-2.5,0.8-3.2,2c-0.7,1.4-0.8,2.8,0.1,4.2
		c0.8,1.3,2.7,1.7,4.5,1c0.6-0.2,1.1-0.6,1.8-1c0.5,0.4,1,0.8,1.5,1.3c-1.6,2.3-4.7,3.3-7.6,2.5c-2.4-0.7-3.8-2.8-3.8-5.6
		c0-3.2,1.5-5.5,4.2-6.6C258.6,152.8,261.6,153.4,263.8,155.7z"/>
	<path d="M511.8,162.4c0.5,0.5,1,0.9,1.5,1.4c-1.7,2.8-6.6,3.2-8.6,2c-0.8-0.5-1.5-1.1-2-1.8c-1.9-2.7-1-7.2,1.7-9.2
		c3-2.2,7.2-1.8,9.5,0.9c-0.6,0.5-1.2,1.1-1.5,1.4c-1.5-0.4-2.6-0.9-3.8-0.9c-3.2-0.1-4.6,3.7-3.2,6.1c0.8,1.4,2.6,1.8,4.5,1.1
		C510.6,163.2,511.1,162.8,511.8,162.4z"/>
	<path d="M209.5,37.1c0,5.2,0,10.3,0,15.6c-1.5,0-2.8,0-4.5,0c-0.2-5.2-0.1-10.3-0.1-15.6C206.6,37.1,208,37.1,209.5,37.1z"/>
	<path d="M194.1,91.7c0-1.5,0-2.8,0-4.1c5.3,0,10.5,0,15.7,0c0,1.4,0,2.7,0,4.1C204.6,91.7,199.4,91.7,194.1,91.7z"/>
	<path d="M266.1,37.2c1.4,0,2.8,0,4.4,0c0,5.2,0,10.3,0,15.5c-1.5,0-2.8,0-4.2,0C265.8,51.3,265.7,39.9,266.1,37.2z"/>
	<path d="M210.5,40.3c2.6-0.4,4.6,0.3,6.5,1.6c1.9,1.3,3,3,2.9,5.5c-0.1,1.7,0,3.3,0,5.2c-1.6,0-3,0-4.8,0c0-1.2,0-2.3,0-3.5
		c0-4.2-0.5-4.8-4.6-5.2C210.5,42.8,210.5,41.6,210.5,40.3z"/>
	<path d="M307.6,91.9c0-1.5,0-2.8,0-4.4c4.4-0.2,8.8,0,13.3-0.1c0,1.5,0,2.9,0,4.5C316.6,91.9,312.2,91.9,307.6,91.9z"/>
	<path d="M349.4,108.2c-1.7,0-3.1,0-4.8,0c0-1.3,0-2.5,0-3.6c0-4-0.5-4.5-4.7-4.9c0-0.6-0.1-1.2-0.1-1.8c0-0.5,0-1.1,0-1.6
		c4.5-1.4,9.6,2.2,9.6,6.6C349.4,104.7,349.4,106.4,349.4,108.2z"/>
	<path d="M238.1,108.2c-1.7,0-3,0-4.7,0c0-1.1,0-2.1,0-3.1c0-0.9,0-1.8-0.1-2.7c-0.2-1.6-1.2-2.4-2.8-2.6c-0.5-0.1-1.1-0.1-1.8-0.1
		c0-1.2,0-2.4,0-3.5c3.4-0.8,7.5,1.1,8.9,4c0.2,0.5,0.5,1.1,0.5,1.6C238.1,103.8,238.1,105.9,238.1,108.2z"/>
	<path d="M251.6,92.1c0-1.7,0-3,0-4.5c4.5,0,8.9,0,13.3,0c0,1.5,0,2.8,0,4.3C260.6,92.2,256.2,92,251.6,92.1z"/>
	<path d="M327.8,40.1c1.6-0.5,2.5-0.1,3.4,1.2c2.2,3.3,4.6,6.5,6.9,9.7c0.3,0.4,0.6,0.9,1,1.6c-1.9,0.5-3.7,0.2-5.4,0.2
		c-0.3,0-0.8-0.6-1-0.9c-1.5-2.4-3-4.9-4.5-7.3C327.3,43,327.8,41.6,327.8,40.1z"/>
	<path d="M278.7,92.7c0.7,0,1.3,0,2.1,0c1.3,2.6,2.6,5.2,2.3,8.3c-0.2,2.3,0,4.6,0,7.1c-1.5,0-2.8,0-4.2,0
		C278.4,106.8,278.3,95.3,278.7,92.7z"/>
	<path d="M94.1,155.2c0.9-0.4,1.6-0.6,2.2-0.9c0.3,1.6,0.4,1.7-0.9,2.2c-1.5,0.6-2,1.6-2.3,3.2c-0.3,2.1-0.8,4.2-1.3,6.5
		c-1,0-1.9,0-3,0c0.4-2.2,0.8-4.4,1.2-6.7c-0.9,0.3-1.5,0.5-2.3,0.8c-0.3-1.1,0-2,1.1-2.3c1.4-0.4,1.9-1.4,2.1-2.7
		c0.3-2.1,0.8-4.2,1.3-6.5c1,0,1.9,0,3.1,0C94.9,150.8,94.5,152.8,94.1,155.2z"/>
	<path d="M307.7,108.2c0-1.5,0-2.8,0-4.3c4.4,0,8.8,0,13.3,0c0,1.4,0,2.9,0,4.3C316.5,108.2,312.1,108.2,307.7,108.2z"/>
	<path d="M274.8,153.5c1,0,1.9,0,2.9,0c0,0.5,0.1,1,0,1.4c-0.7,3.9-1.5,7.8-2.3,11.7c0,0.2-0.1,0.4-0.2,0.6
		c-0.9,3.4-3.3,4.6-6.8,3.3c0.1-0.3,0.1-0.6,0.2-1c0.1-0.3,0.3-0.6,0.5-1.1c2.4,0.2,3.1-1.4,3.4-3.5
		C273.2,161.3,274,157.5,274.8,153.5z"/>
	<path d="M309.1,48.2c0,1.5,0,2.8,0,4.1c-1.5,0.5-9.6,0.6-13.3,0.2c0-1.4,0-2.8,0-4.3C300.2,48.2,304.5,48.2,309.1,48.2z"/>
	<path d="M295.8,31.9c4.5,0,8.8,0,13.2,0c0,1.4,0,2.8,0,4.2c-1.4,0.5-10.8,0.6-13.2,0.1C295.8,34.8,295.8,33.5,295.8,31.9z"/>
	<path d="M265,103.9c0,1.4,0,2.7,0,4c-1.4,0.5-10.4,0.6-13.3,0.2c0-1.3,0-2.7,0-4.1C253.1,103.6,261.9,103.5,265,103.9z"/>
	<path d="M369.2,153.5c1.1,0,2,0,2.9,0c0.1,0.5,0.1,1,0.2,1.3c1.3-0.6,2.6-1.1,4.3-1.8c-0.1,1.3-0.2,2.1-0.2,3.1
		c-0.5,0.1-0.8,0.3-1.2,0.3c-2.3,0.4-3.7,1.9-4.1,4.2c-0.4,1.8-0.7,3.7-1.1,5.6c-1.1,0-2,0-3.1,0
		C367.5,161.9,368.4,157.7,369.2,153.5z"/>
	<path d="M308,92.8c1.5,0,2.8,0,4.4,0c0,1.7,0,3.4,0,5c0,1.7,0,3.3,0,5.2c-1.6,0-3,0-4.4,0C307.6,101.4,307.5,94.8,308,92.8z"/>
	<path d="M139.1,75.6c-1.6,0.6-3.3,1.1-5.1,1.8c0.2-2.2-0.2-4-2.3-5.2c1.7-1.4,2.7-2.9,2.1-5.4c1.9,0.6,3.5,1.1,5.2,1.7
		C139.1,70.9,139.1,73.2,139.1,75.6z"/>
	<path d="M431,77.1c-6.1-1.6-5-1.8-5.1-6.3c0-0.7,0-1.4,0-2.2c1.8-0.6,3.5-1.2,5.3-1.8c0.1,1.1,0,2.1,0.4,2.9
		c0.3,0.9,1.1,1.5,1.8,2.4C431.7,73.3,431.2,75,431,77.1z"/>
	<path d="M256.1,103c-1.5,0-2.9,0-4.4,0c0-3.4,0-6.7,0-10.2c1.4,0,2.8,0,4.4,0C256.1,96.2,256.1,99.5,256.1,103z"/>
	<path d="M300.3,47.3c-1.6,0-2.9,0-4.5,0c0-3.4,0-6.7,0-10.1c1.5,0,2.9,0,4.5,0C300.3,40.6,300.3,43.8,300.3,47.3z"/>
	<path d="M339.1,31.8c-2.5,3.4-4.7,6.4-6.9,9.6c-1-1.2-1.8-2.5-4-2c1.7-2.6,3.2-4.9,4.7-7.1c0.2-0.3,0.8-0.5,1.3-0.5
		C335.6,31.8,337.1,31.8,339.1,31.8z"/>
	<path d="M76.1,153.5c1,0,1.9,0,3.1,0c-0.8,4.3-1.7,8.4-2.5,12.6c-1,0-2,0-3.1,0C74.4,161.9,75.2,157.8,76.1,153.5z"/>
	<path d="M263.4,95.5c0,1.7,0,3.1,0,4.6c-2.1,0-4.1,0-6.3,0c0-1.5,0-2.9,0-4.5C259.1,95.3,261.2,95.5,263.4,95.5z"/>
	<path d="M313.1,100.1c0-1.5,0-2.9,0-4.5c2.1,0,4.2,0,6.4,0c0,1.5,0,2.9,0,4.5C317.4,100.1,315.4,100.1,313.1,100.1z"/>
	<path d="M307.6,39.9c0,1.5,0,2.9,0,4.4c-2.1,0-4.2,0-6.3,0c0-1.5,0-2.9,0-4.4C303.3,39.9,305.3,39.9,307.6,39.9z"/>
	<path d="M278.8,149.6c0,1.1-1.2,2.1-2.2,2c-0.9-0.1-1.5-0.7-1.4-1.7c0.1-1.1,1-1.9,2.1-1.9C278.2,148,278.8,148.7,278.8,149.6z"/>
	<path d="M80.1,149.5c0,1-0.9,2-2,2.1c-0.9,0-1.6-0.6-1.6-1.5c0-1,1-2,2-2.1C79.5,148,80.1,148.6,80.1,149.5z"/>
	<path d="M513.4,149.2c-1.6,1.4-2.7,3.1-5.2,2c0.8-1.1,1.5-2.1,2.3-3.2C511.5,148.5,512.3,148.8,513.4,149.2z"/>
	<path d="M487.9,151.3c0.8-1.1,1.5-2.1,2.3-3.2c0.9,0.4,1.8,0.7,2.9,1.2C491.6,150.6,490.5,152.3,487.9,151.3z"/>
</g>
<g>
</g>
<g>
</g>
<g>
</g>
<g>
</g>
<g>
</g>
<g>
</g>
</svg>
