<?xml version="1.0" encoding="utf-8"?>
<!-- Generator: Adobe Illustrator 26.1.0, SVG Export Plug-In . SVG Version: 6.00 Build 0)  -->
<svg version="1.1" id="Layer_1" xmlns="http://www.w3.org/2000/svg" xmlns:xlink="http://www.w3.org/1999/xlink" x="0px" y="0px"
	 viewBox="0 0 425.2 141.7" style="enable-background:new 0 0 425.2 141.7;" xml:space="preserve">
<style type="text/css">
	.st0{fill:#B91C1C;}
</style>
<g>
	<path class="st0" d="M88.7,129.8c0-40.9,0-81.7,0-122.6c1.4-0.5,11.8-0.6,15-0.2c0.4,1.6,0.6,118.2,0.2,122.8
		C102.4,130.2,90.7,130.3,88.7,129.8z"/>
	<path class="st0" d="M355.8,130c-4.9,0-9.9,0-14.8,0c-0.4-1.5-0.5-120.4-0.1-123c4.9,0,9.8,0,14.8,0C356,8.4,356.2,126.9,355.8,130
		z"/>
	<path class="st0" d="M69.3,6.9c5.1,0,10,0,15,0c0,41,0,81.9,0,122.9c-1.5,0.4-12.8,0.5-15,0.1C69.3,88.9,69.3,48,69.3,6.9z"/>
	<path class="st0" d="M321.1,6.9c5.1,0,10,0,15,0c0,41,0,81.9,0,122.9c-1.5,0.4-12.9,0.5-15,0.1C321.1,88.9,321.1,48,321.1,6.9z"/>
	<path class="st0" d="M360.4,19.6c5.1,0,10,0,15.1,0c0,32.5,0,65,0,97.7c-5,0.2-10,0.1-15.1,0.1C360.4,84.7,360.4,52.3,360.4,19.6z"
		/>
	<path class="st0" d="M49.7,19.6c5,0,10,0,15.1,0c0,32.6,0,65.1,0,97.7c-5,0-10,0-15.1,0C49.7,84.7,49.7,52.2,49.7,19.6z"/>
	<path class="st0" d="M30,32.2c5.1,0,10,0,15.1,0c0,24.1,0,48.2,0,72.5c-5,0.2-10,0.1-15.1,0.1C30,80.5,30,56.5,30,32.2z"/>
	<path class="st0" d="M380,104.6c0-24.2,0-48.3,0-72.4c5,0,9.9,0,14.7,0c0.4,1.5,0.6,68.9,0.2,72.4C390,104.6,385.1,104.6,380,104.6
		z"/>
	<path class="st0" d="M25.9,62c0,4.4,0,8.6,0,12.9C24.4,75.3,9,75.5,6.4,75c0-4.3,0-8.6,0-12.9C7.8,61.7,23.1,61.6,25.9,62z"/>
	<path class="st0" d="M418.8,75.1c-6.5,0-12.9,0-19.4,0c0-4.4,0-8.7,0-13c1.4-0.4,16.2-0.6,19.4-0.2
		C418.8,66.2,418.8,70.5,418.8,75.1z"/>
	<g>
		<path class="st0" d="M305.4,68.1L305.4,68.1c0,0.9-0.7,1.6-1.6,1.6h-2c-25.1,0-50,0-75.1,0c-17.5,0-35.1-0.1-52.6-0.1
			c-11,0-22,0.1-33,0.1c-3.8,0-7.7-0.1-11.6-0.1c-2.1,0-4.3,0.1-6.4,0.2c-0.3,0-0.6,0-0.8,0.1c-1,0.2-1.8-0.6-1.8-1.6v-2.1
			c0.2,0,0.3-0.2,0.5-0.1c2.9,0.7,5.8,0.4,8.7,0.4c0.5,0,1.1,0,1.6,0c50.3,0,100.6,0,150.9,0c7.1-0.1,14.3-0.1,21.6-0.1
			C304.7,66.4,305.4,67.2,305.4,68.1z"/>
		<path class="st0" d="M118.9,72.1c-0.1,0-0.2,0.1-0.2,0.1c-1,0.5-2.1-0.1-2.3-1.2c-0.1-0.7-0.3-1.4-0.7-2c-0.3-0.5-0.3-1.2,0-1.8
			c0.4-0.6,0.6-1.3,0.7-2.1c0.2-1.1,1.3-1.7,2.3-1.2c0.1,0,0.1,0.1,0.2,0.1c0.5,0.3,0.9,0.8,0.9,1.4c0,1.7,0,3.4,0,5.1
			C119.8,71.2,119.4,71.8,118.9,72.1z"/>
		<path class="st0" d="M309.5,71c-0.2,1.1-1.4,1.7-2.3,1.1c-1.6-1-1.2-1.9-1.2-5.3v-1.2c0-0.6,0.3-1.2,0.9-1.5
			c0.1-0.1,0.3-0.1,0.4-0.2c1-0.5,2.1,0.1,2.3,1.2c0,0.2,0.1,0.4,0.1,0.5c0.1,0.5,0.4,1,0.6,1.4c0.3,0.5,0.3,1.2,0,1.8
			C309.9,69.5,309.6,70.2,309.5,71z"/>
	</g>
	<g>
		<path class="st0" d="M212.6,48.6c0-1.5,0-2.9,0-4.4c0.6-0.1,1.2-0.3,1.8-0.4c2.9-0.8,4.4-3.2,4.1-6.4c-0.2-2.6-2.4-4.8-5.1-5
			c-2-0.1-4,0-6.2,0c0-1.6,0-3,0-4.5c2.6,0,5.1-0.3,7.6,0.1c5.6,0.7,9.3,5.9,8.7,11.7C222.9,44.6,218.3,49,212.6,48.6z"/>
		<path class="st0" d="M181,27.9c1.7,0,3.2,0,5,0c-1.4,4.1-2.7,8-4.1,12.2c1.2,0.1,2.2,0.2,3.3,0.2c0.5,1.3,0.9,2.5,1.5,4
			c-2.2,0-4.2,0-6.2,0c-0.6,1.6-1.1,3-1.6,4.3c-1.6,0-3.2,0-5,0C176.3,41.6,178.6,34.8,181,27.9z"/>
		<path class="st0" d="M263.9,27.9c1.6,0,2.9,0,4.4,0c0,6.9,0,13.7,0,20.7c-1.5,0-2.9,0-4.4,0C263.9,41.7,263.9,34.9,263.9,27.9z"/>
		<path class="st0" d="M234.8,104.2c-1.5,0-2.8,0-4.3,0c0-6.9,0-13.7,0-20.6c1.5,0,2.8,0,4.3,0C234.8,90.5,234.8,97.2,234.8,104.2z"
			/>
		<path class="st0" d="M187,28.4c2.3,6.6,4.5,13.3,6.9,20.1c-1.8,0-3.4,0-5.1,0c-1-3-1.9-6.1-3.2-9c-1.2-2.9-1.5-5.7,0-8.6
			c0.4-0.8,0.6-1.7,0.9-2.5C186.7,28.4,186.8,28.4,187,28.4z"/>
		<path class="st0" d="M222.4,88c-1-0.1-1.7-0.1-2.6-0.1c0-1.4,0-2.7,0-4.4c1.6,0,3.1-0.1,4.7,0c0.4,0,0.9,0.5,1,0.9
			c1.4,3.1,2.8,6.3,4.1,9.4c0.1,0.3,0.2,0.7,0.2,1c0,2.9,0,5.9,0,8.8c0,0.1-0.1,0.2-0.4,0.4C227.1,98.7,224.8,93.4,222.4,88z"/>
		<path class="st0" d="M173.6,91.5c0.2-0.4,0.4-0.6,0.5-0.9c0.7-1.8,0.1-2.7-1.8-2.7c-2,0-3.9,0-5.9,0c-0.7,0-1.4-0.1-2.1-0.1
			c0-1.4,0-2.7,0-4.1c0.5-0.1,0.9-0.2,1.4-0.2c2.5,0,5-0.1,7.5,0c3.2,0.1,5.6,2.2,5.9,5.2c0.1,0.9-0.1,2-0.5,2.8
			c-0.7,1.6-1.5,1.8-3.2,1C174.9,92.2,174.4,91.9,173.6,91.5z"/>
		<path class="st0" d="M275.7,87.9c0-1.6,0-2.9,0-4.3c3.4,0,6.8-0.2,10.1,0.1c2.7,0.2,4.8,2.8,4.8,5.5c0,1.7-0.7,3.1-2.3,3.9
			c-1-0.5-2-0.9-3-1.4c-0.1-0.2-0.2-0.3-0.1-0.4c1.2-2.5,0.7-3.3-2-3.3C280.7,87.9,278.3,87.9,275.7,87.9z"/>
		<path class="st0" d="M146.2,32.3c0-1.6,0-2.9,0-4.3c0.4-0.1,0.8-0.2,1.2-0.2c2.6,0,5.2-0.1,7.7,0c2.9,0.1,5.2,1.9,5.8,4.6
			c0.5,2.2,0,3.6-2.1,5.1c-0.5-0.2-1.1-0.5-1.6-0.8c-0.5-0.2-1-0.5-1.6-0.7c0.2-0.4,0.4-0.7,0.6-1.1c0.5-1.6,0-2.4-1.7-2.5
			C151.7,32.3,149.1,32.3,146.2,32.3z"/>
		<path class="st0" d="M145.6,104.2c-1.7,0-3.1,0-4.5,0c-0.4-1.5-0.5-12.1-0.2-15.6c1.5,0,3.1,0,4.7,0
			C145.6,93.9,145.6,98.9,145.6,104.2z"/>
		<path class="st0" d="M280.3,104.2c-1.6,0-3,0-4.5,0c0-5.2,0-10.3,0-15.4c1.6,0,3,0,4.5,0C280.3,94,280.3,99,280.3,104.2z"/>
		<path class="st0" d="M164.4,104.2c0-5.2,0-10.2,0-15.4c1.5,0,2.9,0,4.5,0c0,5.1,0,10.2,0,15.4C167.4,104.2,166,104.2,164.4,104.2z
			"/>
		<path class="st0" d="M150.7,33.1c0,5.2,0,10.3,0,15.6c-1.5,0-2.8,0-4.5,0c-0.2-5.2-0.1-10.3-0.1-15.6
			C147.8,33.1,149.2,33.1,150.7,33.1z"/>
		<path class="st0" d="M135.3,87.7c0-1.5,0-2.8,0-4.1c5.3,0,10.5,0,15.7,0c0,1.4,0,2.7,0,4.1C145.8,87.7,140.6,87.7,135.3,87.7z"/>
		<path class="st0" d="M207.3,33.2c1.4,0,2.8,0,4.4,0c0,5.2,0,10.3,0,15.5c-1.5,0-2.8,0-4.2,0C207,47.3,206.9,35.9,207.3,33.2z"/>
		<path class="st0" d="M151.7,36.3c2.6-0.4,4.6,0.3,6.5,1.6s3,3,2.9,5.5c-0.1,1.7,0,3.3,0,5.2c-1.6,0-3,0-4.8,0c0-1.2,0-2.3,0-3.5
			c0-4.2-0.5-4.8-4.6-5.2C151.7,38.8,151.7,37.6,151.7,36.3z"/>
		<path class="st0" d="M248.8,87.9c0-1.5,0-2.8,0-4.4c4.4-0.2,8.8,0,13.3-0.1c0,1.5,0,2.9,0,4.5C257.8,87.9,253.4,87.9,248.8,87.9z"
			/>
		<path class="st0" d="M290.6,104.2c-1.7,0-3.1,0-4.8,0c0-1.3,0-2.5,0-3.6c0-4-0.5-4.5-4.7-4.9c0-0.6-0.1-1.2-0.1-1.8
			c0-0.5,0-1.1,0-1.6c4.5-1.4,9.6,2.2,9.6,6.6C290.6,100.7,290.6,102.4,290.6,104.2z"/>
		<path class="st0" d="M179.3,104.2c-1.7,0-3,0-4.7,0c0-1.1,0-2.1,0-3.1c0-0.9,0-1.8-0.1-2.7c-0.2-1.6-1.2-2.4-2.8-2.6
			c-0.5-0.1-1.1-0.1-1.8-0.1c0-1.2,0-2.4,0-3.5c3.4-0.8,7.5,1.1,8.9,4c0.2,0.5,0.5,1.1,0.5,1.6C179.3,99.8,179.3,101.9,179.3,104.2z
			"/>
		<path class="st0" d="M192.8,88.1c0-1.7,0-3,0-4.5c4.5,0,8.9,0,13.3,0c0,1.5,0,2.8,0,4.3C201.8,88.2,197.4,88,192.8,88.1z"/>
		<path class="st0" d="M269,36.1c1.6-0.5,2.5-0.1,3.4,1.2c2.2,3.3,4.6,6.5,6.9,9.7c0.3,0.4,0.6,0.9,1,1.6c-1.9,0.5-3.7,0.2-5.4,0.2
			c-0.3,0-0.8-0.6-1-0.9c-1.5-2.4-3-4.9-4.5-7.3C268.5,39,269,37.6,269,36.1z"/>
		<path class="st0" d="M219.9,88.7c0.7,0,1.3,0,2.1,0c1.3,2.6,2.6,5.2,2.3,8.3c-0.2,2.3,0,4.6,0,7.1c-1.5,0-2.8,0-4.2,0
			C219.6,102.8,219.5,91.3,219.9,88.7z"/>
		<path class="st0" d="M248.9,104.2c0-1.5,0-2.8,0-4.3c4.4,0,8.8,0,13.3,0c0,1.4,0,2.9,0,4.3C257.7,104.2,253.3,104.2,248.9,104.2z"
			/>
		<path class="st0" d="M250.3,44.2c0,1.5,0,2.8,0,4.1c-1.5,0.5-9.6,0.6-13.3,0.2c0-1.4,0-2.8,0-4.3
			C241.4,44.2,245.7,44.2,250.3,44.2z"/>
		<path class="st0" d="M237,27.9c4.5,0,8.8,0,13.2,0c0,1.4,0,2.8,0,4.2c-1.4,0.5-10.8,0.6-13.2,0.1C237,30.8,237,29.5,237,27.9z"/>
		<path class="st0" d="M206.2,99.9c0,1.4,0,2.7,0,4c-1.4,0.5-10.4,0.6-13.3,0.2c0-1.3,0-2.7,0-4.1C194.3,99.6,203.1,99.5,206.2,99.9
			z"/>
		<path class="st0" d="M249.2,88.8c1.5,0,2.8,0,4.4,0c0,1.7,0,3.4,0,5c0,1.7,0,3.3,0,5.2c-1.6,0-3,0-4.4,0
			C248.8,97.4,248.7,90.8,249.2,88.8z"/>
		<path class="st0" d="M197.3,99c-1.5,0-2.9,0-4.4,0c0-3.4,0-6.7,0-10.2c1.4,0,2.8,0,4.4,0C197.3,92.2,197.3,95.5,197.3,99z"/>
		<path class="st0" d="M241.5,43.3c-1.6,0-2.9,0-4.5,0c0-3.4,0-6.7,0-10.1c1.5,0,2.9,0,4.5,0C241.5,36.6,241.5,39.8,241.5,43.3z"/>
		<path class="st0" d="M280.3,27.8c-2.5,3.4-4.7,6.4-6.9,9.6c-1-1.2-1.8-2.5-4-2c1.7-2.6,3.2-4.9,4.7-7.1c0.2-0.3,0.8-0.5,1.3-0.5
			C276.8,27.8,278.3,27.8,280.3,27.8z"/>
		<path class="st0" d="M204.6,91.5c0,1.7,0,3.1,0,4.6c-2.1,0-4.1,0-6.3,0c0-1.5,0-2.9,0-4.5C200.3,91.3,202.4,91.5,204.6,91.5z"/>
		<path class="st0" d="M254.3,96.1c0-1.5,0-2.9,0-4.5c2.1,0,4.2,0,6.4,0c0,1.5,0,2.9,0,4.5C258.6,96.1,256.6,96.1,254.3,96.1z"/>
		<path class="st0" d="M248.8,35.9c0,1.5,0,2.9,0,4.4c-2.1,0-4.2,0-6.3,0c0-1.5,0-2.9,0-4.4C244.5,35.9,246.5,35.9,248.8,35.9z"/>
	</g>
</g>
</svg>
