<?xml version="1.0" encoding="utf-8"?>
<!-- Generator: Adobe Illustrator 26.1.0, SVG Export Plug-In . SVG Version: 6.00 Build 0)  -->
<svg version="1.1" id="Layer_1" xmlns="http://www.w3.org/2000/svg" xmlns:xlink="http://www.w3.org/1999/xlink" x="0px" y="0px"
	 viewBox="0 0 566.9 182.7" style="enable-background:new 0 0 566.9 182.7;" xml:space="preserve">
<style type="text/css">
	.st0{fill:#B91C1C;}
</style>
<g>
	<path class="st0" d="M99.6,133.8c0-40.9,0-81.7,0-122.6c1.4-0.5,11.8-0.6,15-0.2c0.4,1.6,0.6,118.2,0.2,122.8
		C113.3,134.2,101.6,134.3,99.6,133.8z"/>
	<path class="st0" d="M486.6,134c-4.9,0-9.9,0-14.8,0c-0.4-1.5-0.5-120.4-0.1-123c4.9,0,9.8,0,14.8,0
		C486.9,12.4,487.1,130.9,486.6,134z"/>
	<path class="st0" d="M80.2,10.9c5.1,0,10,0,15,0c0,41,0,81.9,0,122.9c-1.5,0.4-12.8,0.5-15,0.1C80.2,92.9,80.2,52,80.2,10.9z"/>
	<path class="st0" d="M452,10.9c5.1,0,10,0,15,0c0,41,0,81.9,0,122.9c-1.5,0.4-12.9,0.5-15,0.1C452,92.9,452,52,452,10.9z"/>
	<path class="st0" d="M491.2,23.6c5.1,0,10,0,15.1,0c0,32.5,0,65,0,97.7c-5,0.2-10,0.1-15.1,0.1C491.2,88.7,491.2,56.3,491.2,23.6z"
		/>
	<path class="st0" d="M60.6,23.6c5,0,10,0,15.1,0c0,32.6,0,65.1,0,97.7c-5,0-10,0-15.1,0C60.6,88.7,60.6,56.2,60.6,23.6z"/>
	<path class="st0" d="M40.9,36.2c5.1,0,10,0,15.1,0c0,24.1,0,48.2,0,72.5c-5,0.2-10,0.1-15.1,0.1C40.9,84.5,40.9,60.5,40.9,36.2z"/>
	<path class="st0" d="M510.9,108.6c0-24.2,0-48.3,0-72.4c5,0,9.9,0,14.7,0c0.4,1.5,0.6,68.9,0.2,72.4
		C520.9,108.6,516,108.6,510.9,108.6z"/>
	<path class="st0" d="M36.8,66c0,4.4,0,8.6,0,12.9c-1.5,0.4-16.9,0.6-19.5,0.1c0-4.3,0-8.6,0-12.9C18.7,65.7,34,65.6,36.8,66z"/>
	<path class="st0" d="M549.7,79.1c-6.5,0-12.9,0-19.4,0c0-4.4,0-8.7,0-13c1.4-0.4,16.2-0.6,19.4-0.2
		C549.7,70.2,549.7,74.5,549.7,79.1z"/>
	<g>
		<path class="st0" d="M426.4,70.4c0,1.1,0,2.3,0,3.3c-1.9,0-3.7,0-5.5,0c-38.6,0-77.1,0-115.7,0c-27,0-54-0.1-81.1-0.1
			c-16.9,0-33.9,0.1-50.8,0.1c-5.9,0-11.9-0.1-17.8-0.1c-3.3,0-6.6,0.1-9.9,0.2c-1.3,0-2.6,0.3-4.1,0.4c0-1.4,0-2.6,0-4
			c0.3,0,0.5-0.2,0.8-0.1c4.5,0.7,8.9,0.4,13.4,0.4c0.8,0,1.7,0,2.5,0c77.5,0,155,0,232.5,0C402.5,70.4,414.3,70.4,426.4,70.4z"/>
		<path class="st0" d="M140.4,75.6c-1.6,0.6-3.3,1.1-5.1,1.8c0.2-2.2-0.2-4-2.3-5.2c1.7-1.4,2.7-2.9,2.1-5.4
			c1.9,0.6,3.5,1.1,5.2,1.7C140.4,70.9,140.4,73.2,140.4,75.6z"/>
		<path class="st0" d="M432.3,77.1c-6.1-1.6-5-1.8-5.1-6.3c0-0.7,0-1.4,0-2.2c1.8-0.6,3.5-1.2,5.3-1.8c0.1,1.1,0,2.1,0.4,2.9
			c0.3,0.9,1.1,1.5,1.8,2.4C433,73.3,432.5,75,432.3,77.1z"/>
	</g>
	<g>
		<path class="st0" d="M283.5,52.6c0-1.5,0-2.9,0-4.4c0.6-0.1,1.2-0.3,1.8-0.4c2.9-0.8,4.4-3.2,4.1-6.4c-0.2-2.6-2.4-4.8-5.1-5
			c-2-0.1-4,0-6.2,0c0-1.6,0-3,0-4.5c2.6,0,5.1-0.3,7.6,0.1c5.6,0.7,9.3,5.9,8.7,11.7C293.8,48.6,289.2,53,283.5,52.6z"/>
		<path class="st0" d="M251.9,31.9c1.7,0,3.2,0,5,0c-1.4,4.1-2.7,8-4.1,12.2c1.2,0.1,2.2,0.2,3.3,0.2c0.5,1.3,0.9,2.5,1.5,4
			c-2.2,0-4.2,0-6.2,0c-0.6,1.6-1.1,3-1.6,4.3c-1.6,0-3.2,0-5,0C247.2,45.6,249.5,38.8,251.9,31.9z"/>
		<path class="st0" d="M334.8,31.9c1.6,0,2.9,0,4.4,0c0,6.9,0,13.7,0,20.7c-1.5,0-2.9,0-4.4,0C334.8,45.7,334.8,38.9,334.8,31.9z"/>
		<path class="st0" d="M305.7,108.2c-1.5,0-2.8,0-4.3,0c0-6.9,0-13.7,0-20.6c1.5,0,2.8,0,4.3,0C305.7,94.5,305.7,101.2,305.7,108.2z
			"/>
		<path class="st0" d="M257.9,32.4c2.3,6.6,4.5,13.3,6.9,20.1c-1.8,0-3.4,0-5.1,0c-1-3-1.9-6.1-3.2-9c-1.2-2.9-1.5-5.7,0-8.6
			c0.4-0.8,0.6-1.7,0.9-2.5C257.6,32.4,257.7,32.4,257.9,32.4z"/>
		<path class="st0" d="M293.3,92c-1-0.1-1.7-0.1-2.6-0.1c0-1.4,0-2.7,0-4.4c1.6,0,3.1-0.1,4.7,0c0.4,0,0.9,0.5,1,0.9
			c1.4,3.1,2.8,6.3,4.1,9.4c0.1,0.3,0.2,0.7,0.2,1c0,2.9,0,5.9,0,8.8c0,0.1-0.1,0.2-0.4,0.4C298,102.7,295.7,97.4,293.3,92z"/>
		<path class="st0" d="M244.5,95.5c0.2-0.4,0.4-0.6,0.5-0.9c0.7-1.8,0.1-2.7-1.8-2.7c-2,0-3.9,0-5.9,0c-0.7,0-1.4-0.1-2.1-0.1
			c0-1.4,0-2.7,0-4.1c0.5-0.1,0.9-0.2,1.4-0.2c2.5,0,5-0.1,7.5,0c3.2,0.1,5.6,2.2,5.9,5.2c0.1,0.9-0.1,2-0.5,2.8
			c-0.7,1.6-1.5,1.8-3.2,1C245.8,96.2,245.3,95.9,244.5,95.5z"/>
		<path class="st0" d="M346.6,91.9c0-1.6,0-2.9,0-4.3c3.4,0,6.8-0.2,10.1,0.1c2.7,0.2,4.8,2.8,4.8,5.5c0,1.7-0.7,3.1-2.3,3.9
			c-1-0.5-2-0.9-3-1.4c-0.1-0.2-0.2-0.3-0.1-0.4c1.2-2.5,0.7-3.3-2-3.3C351.6,91.9,349.2,91.9,346.6,91.9z"/>
		<path class="st0" d="M217.1,36.3c0-1.6,0-2.9,0-4.3c0.4-0.1,0.8-0.2,1.2-0.2c2.6,0,5.2-0.1,7.7,0c2.9,0.1,5.2,1.9,5.8,4.6
			c0.5,2.2,0,3.6-2.1,5.1c-0.5-0.2-1.1-0.5-1.6-0.8c-0.5-0.2-1-0.5-1.6-0.7c0.2-0.4,0.4-0.7,0.6-1.1c0.5-1.6,0-2.4-1.7-2.5
			C222.6,36.3,220,36.3,217.1,36.3z"/>
		<path class="st0" d="M216.5,108.2c-1.7,0-3.1,0-4.5,0c-0.4-1.5-0.5-12.1-0.2-15.6c1.5,0,3.1,0,4.7,0
			C216.5,97.9,216.5,102.9,216.5,108.2z"/>
		<path class="st0" d="M351.2,108.2c-1.6,0-3,0-4.5,0c0-5.2,0-10.3,0-15.4c1.6,0,3,0,4.5,0C351.2,98,351.2,103,351.2,108.2z"/>
		<path class="st0" d="M235.3,108.2c0-5.2,0-10.2,0-15.4c1.5,0,2.9,0,4.5,0c0,5.1,0,10.2,0,15.4
			C238.3,108.2,236.9,108.2,235.3,108.2z"/>
		<path class="st0" d="M221.6,37.1c0,5.2,0,10.3,0,15.6c-1.5,0-2.8,0-4.5,0c-0.2-5.2-0.1-10.3-0.1-15.6
			C218.7,37.1,220.1,37.1,221.6,37.1z"/>
		<path class="st0" d="M206.2,91.7c0-1.5,0-2.8,0-4.1c5.3,0,10.5,0,15.7,0c0,1.4,0,2.7,0,4.1C216.7,91.7,211.5,91.7,206.2,91.7z"/>
		<path class="st0" d="M278.2,37.2c1.4,0,2.8,0,4.4,0c0,5.2,0,10.3,0,15.5c-1.5,0-2.8,0-4.2,0C277.9,51.3,277.8,39.9,278.2,37.2z"/>
		<path class="st0" d="M222.6,40.3c2.6-0.4,4.6,0.3,6.5,1.6s3,3,2.9,5.5c-0.1,1.7,0,3.3,0,5.2c-1.6,0-3,0-4.8,0c0-1.2,0-2.3,0-3.5
			c0-4.2-0.5-4.8-4.6-5.2C222.6,42.8,222.6,41.6,222.6,40.3z"/>
		<path class="st0" d="M319.7,91.9c0-1.5,0-2.8,0-4.4c4.4-0.2,8.8,0,13.3-0.1c0,1.5,0,2.9,0,4.5C328.7,91.9,324.3,91.9,319.7,91.9z"
			/>
		<path class="st0" d="M361.5,108.2c-1.7,0-3.1,0-4.8,0c0-1.3,0-2.5,0-3.6c0-4-0.5-4.5-4.7-4.9c0-0.6-0.1-1.2-0.1-1.8
			c0-0.5,0-1.1,0-1.6c4.5-1.4,9.6,2.2,9.6,6.6C361.5,104.7,361.5,106.4,361.5,108.2z"/>
		<path class="st0" d="M250.2,108.2c-1.7,0-3,0-4.7,0c0-1.1,0-2.1,0-3.1c0-0.9,0-1.8-0.1-2.7c-0.2-1.6-1.2-2.4-2.8-2.6
			c-0.5-0.1-1.1-0.1-1.8-0.1c0-1.2,0-2.4,0-3.5c3.4-0.8,7.5,1.1,8.9,4c0.2,0.5,0.5,1.1,0.5,1.6C250.2,103.8,250.2,105.9,250.2,108.2
			z"/>
		<path class="st0" d="M263.7,92.1c0-1.7,0-3,0-4.5c4.5,0,8.9,0,13.3,0c0,1.5,0,2.8,0,4.3C272.7,92.2,268.3,92,263.7,92.1z"/>
		<path class="st0" d="M339.9,40.1c1.6-0.5,2.5-0.1,3.4,1.2c2.2,3.3,4.6,6.5,6.9,9.7c0.3,0.4,0.6,0.9,1,1.6
			c-1.9,0.5-3.7,0.2-5.4,0.2c-0.3,0-0.8-0.6-1-0.9c-1.5-2.4-3-4.9-4.5-7.3C339.4,43,339.9,41.6,339.9,40.1z"/>
		<path class="st0" d="M290.8,92.7c0.7,0,1.3,0,2.1,0c1.3,2.6,2.6,5.2,2.3,8.3c-0.2,2.3,0,4.6,0,7.1c-1.5,0-2.8,0-4.2,0
			C290.5,106.8,290.4,95.3,290.8,92.7z"/>
		<path class="st0" d="M319.8,108.2c0-1.5,0-2.8,0-4.3c4.4,0,8.8,0,13.3,0c0,1.4,0,2.9,0,4.3C328.6,108.2,324.2,108.2,319.8,108.2z"
			/>
		<path class="st0" d="M321.2,48.2c0,1.5,0,2.8,0,4.1c-1.5,0.5-9.6,0.6-13.3,0.2c0-1.4,0-2.8,0-4.3
			C312.3,48.2,316.6,48.2,321.2,48.2z"/>
		<path class="st0" d="M307.9,31.9c4.5,0,8.8,0,13.2,0c0,1.4,0,2.8,0,4.2c-1.4,0.5-10.8,0.6-13.2,0.1
			C307.9,34.8,307.9,33.5,307.9,31.9z"/>
		<path class="st0" d="M277.1,103.9c0,1.4,0,2.7,0,4c-1.4,0.5-10.4,0.6-13.3,0.2c0-1.3,0-2.7,0-4.1
			C265.2,103.6,274,103.5,277.1,103.9z"/>
		<path class="st0" d="M320.1,92.8c1.5,0,2.8,0,4.4,0c0,1.7,0,3.4,0,5c0,1.7,0,3.3,0,5.2c-1.6,0-3,0-4.4,0
			C319.7,101.4,319.6,94.8,320.1,92.8z"/>
		<path class="st0" d="M268.2,103c-1.5,0-2.9,0-4.4,0c0-3.4,0-6.7,0-10.2c1.4,0,2.8,0,4.4,0C268.2,96.2,268.2,99.5,268.2,103z"/>
		<path class="st0" d="M312.4,47.3c-1.6,0-2.9,0-4.5,0c0-3.4,0-6.7,0-10.1c1.5,0,2.9,0,4.5,0C312.4,40.6,312.4,43.8,312.4,47.3z"/>
		<path class="st0" d="M351.2,31.8c-2.5,3.4-4.7,6.4-6.9,9.6c-1-1.2-1.8-2.5-4-2c1.7-2.6,3.2-4.9,4.7-7.1c0.2-0.3,0.8-0.5,1.3-0.5
			C347.7,31.8,349.2,31.8,351.2,31.8z"/>
		<path class="st0" d="M275.5,95.5c0,1.7,0,3.1,0,4.6c-2.1,0-4.1,0-6.3,0c0-1.5,0-2.9,0-4.5C271.2,95.3,273.3,95.5,275.5,95.5z"/>
		<path class="st0" d="M325.2,100.1c0-1.5,0-2.9,0-4.5c2.1,0,4.2,0,6.4,0c0,1.5,0,2.9,0,4.5C329.5,100.1,327.5,100.1,325.2,100.1z"
			/>
		<path class="st0" d="M319.7,39.9c0,1.5,0,2.9,0,4.4c-2.1,0-4.2,0-6.3,0c0-1.5,0-2.9,0-4.4C315.4,39.9,317.4,39.9,319.7,39.9z"/>
	</g>
</g>
<g>
	<path class="st0" d="M420.5,166.1c-0.4-2.7-0.7-5.3-1.1-8.5c-2,3-3.2,6-5,8.7c-1,0-1.9,0-3.1,0c-0.7-4.2-1.4-8.3-2.1-12.7
		c1.1,0,2.1,0,3.1,0c0.4,3,0.7,5.9,1.2,9.3c2-3.2,3.3-6.3,5.1-9.3c1,0,2,0,3.1,0c0.4,3,0.7,5.9,1.1,9.1c0.4-0.6,0.7-0.9,0.9-1.3
		c1.1-2,2.1-4.1,3.2-6.1c1.1-2.1,1.1-2.1,3.9-1.6c-0.3,0.6-0.6,1.2-0.9,1.8c-1.6,2.9-3.2,5.7-4.8,8.6
		C423.6,166.5,423.6,166.5,420.5,166.1z"/>
	<path class="st0" d="M220.6,166.2c-1,0-1.9,0-2.8,0c-0.1-0.3-0.2-0.6-0.3-1c-0.2,0.1-0.4,0.1-0.6,0.2c-0.4,0.2-0.8,0.5-1.3,0.7
		c-3.4,1.3-6.6-0.5-7.3-4c-1-5,3.6-9.8,8.3-8.5c1,0.3,1.9,1,3.1,1.7c0.5-2.1,1-4.4,1.5-6.6c1,0,1.9,0,3,0
		C222.9,154.5,221.8,160.3,220.6,166.2z M218.8,159.5c0-2.1-1.2-3.4-3.1-3.4c-2.3,0-4.2,2-4.1,4.5c0,2.1,1.2,3.3,3.2,3.3
		C216.9,163.9,218.8,161.9,218.8,159.5z"/>
	<path class="st0" d="M346.4,170.8c-1,0-1.9,0-3,0c1.2-5.8,2.3-11.5,3.4-17.3c1,0,1.8,0,2.8,0c0.1,0.3,0.2,0.7,0.3,1.1
		c0.2-0.1,0.4-0.1,0.6-0.2c0.8-0.3,1.6-0.8,2.5-1c2.2-0.5,4.5,0.5,5.5,2.6c1.2,2.6,1,5.2-0.7,7.5c-1.5,2.2-3.7,3.2-6.3,2.8
		c-1.3-0.2-2.4-1.1-3.7-1.7C347.4,166.6,346.9,168.7,346.4,170.8z M351.8,163.7c2,0.1,3.9-1.5,4.3-3.6c0.3-1.3,0-2.5-1-3.5
		c-1-0.9-2.3-0.9-3.5-0.5c-2.3,0.7-3.5,3.9-2.4,6C349.8,163.2,350.5,163.7,351.8,163.7z"/>
	<path class="st0" d="M65.1,153.5c-1.7-0.5-3.1-1-4.5-1.2c-1.7-0.3-2.9,0.4-3.1,1.4c-0.2,1,0.4,1.7,2.2,2.4c1,0.4,2.1,0.7,3.2,1.1
		c2.8,1.3,3.6,4.2,1.8,6.8c-1.2,1.7-3.1,2.3-5.1,2.6c-2.7,0.4-5.6-0.7-7.7-2.8c0.5-0.8,0.9-1.6,1.3-2.2c1.7,0.7,3.2,1.6,4.8,2
		c0.9,0.2,2,0.1,2.8-0.3c1.6-0.6,1.6-2.3,0.2-3.2c-0.6-0.4-1.3-0.6-1.9-0.8c-0.7-0.3-1.5-0.4-2.2-0.7c-1.6-0.6-2.8-1.6-3-3.4
		c-0.1-1.9,0.6-3.4,2.2-4.5c2.2-1.5,4.7-1.6,7.3-1c1.1,0.2,2,0.8,3.3,1.3C65.8,151.9,65.4,152.7,65.1,153.5z"/>
	<path class="st0" d="M299,155.2c0.2-0.5,0.3-1,0.6-1.6c0.8,0,1.7,0,2.9,0c-0.5,4.2-1.6,8.3-2.4,12.6c-1,0-1.9,0-2.9,0
		c-0.1-0.3-0.2-0.6-0.3-1c-0.2,0.1-0.4,0.1-0.6,0.2c-0.4,0.2-0.8,0.5-1.3,0.7c-3.4,1.3-6.6-0.5-7.3-4.1c-1-5,3.6-9.8,8.2-8.5
		C296.9,153.8,297.9,154.6,299,155.2z M290.9,160.6c0,2.1,1.2,3.3,3.2,3.3c2.3,0,4.1-2,4.1-4.4c0-2.1-1.3-3.5-3.3-3.4
		C292.6,156.2,290.9,158.1,290.9,160.6z"/>
	<path class="st0" d="M115.4,166.2c-1.1,0-1.9,0-2.8,0c-0.1-0.4-0.2-0.7-0.4-1c-0.2,0.1-0.4,0.1-0.6,0.2c-0.4,0.2-0.7,0.4-1.1,0.6
		c-3.7,1.5-7-0.5-7.5-4.5s2-7.4,5.8-8.1c2.1-0.4,3.8,0.3,5.3,2.1c0.3-0.8,0.5-1.4,0.7-2c1,0,1.8,0,3,0
		C117.1,157.8,116.2,162,115.4,166.2z M110.3,156.1c-2.2,0-4.1,2-4.2,4.4c0,2.1,1.3,3.5,3.3,3.4c2.2-0.1,4.1-2.1,4.1-4.5
		C113.6,157.5,112.2,156.1,110.3,156.1z"/>
	<path class="st0" d="M396.2,155.4c0.2-0.6,0.4-1.2,0.6-1.8c0.9,0,1.8,0,3,0c-0.8,4.3-1.7,8.4-2.5,12.5c-2.5,0.5-2.6,0.5-3.2-0.8
		c-0.6,0.3-1.1,0.6-1.7,0.8c-3.7,1.5-7-0.5-7.5-4.4c-0.5-4.1,2-7.6,6-8.2C392.9,153.1,394,153.5,396.2,155.4z M395.5,159.4
		c-0.1-2-1.4-3.3-3.3-3.3c-2.3,0-4.2,2.2-4.1,4.6c0.1,2,1.4,3.2,3.4,3.2C393.8,163.8,395.5,161.7,395.5,159.4z"/>
	<path class="st0" d="M155,153.7c-2,1.7-3.7,3.3-5.7,5c1.1,2.4,2.2,4.9,3.4,7.5c-1.3,0-2.4,0-3.6,0c-0.7-1.6-1.5-3.3-2.2-5.1
		c-2.3,1-3.1,2.8-3.3,5.1c-1.1,0-2,0-3.1,0c1.2-5.9,2.3-11.7,3.5-17.6c1,0,1.9,0,3.1,0c-0.6,3.2-1.2,6.4-1.9,9.9
		c0.7-0.5,1.2-0.9,1.7-1.2c1.1-0.9,2.2-1.7,3.2-2.7C151.4,153.2,153,153.3,155,153.7z"/>
	<path class="st0" d="M169.6,153.4c2.7,0,4.8,1.2,5.7,3.4c1,2.5,0.4,5.7-1.6,7.5c-2.3,2.2-5.1,2.6-8,1.7c-3.2-1-4.5-4.7-3.2-8.2
		C163.8,155.1,166.3,153.4,169.6,153.4z M172.5,159.6c0-2.2-1.2-3.5-3.3-3.5c-2.3,0-3.9,1.8-3.9,4.2c0,2.2,1.3,3.5,3.3,3.5
		C170.9,163.8,172.5,162,172.5,159.6z"/>
	<path class="st0" d="M467.4,166.4c-2.8,0-5-1.4-5.8-3.6c-1-2.7-0.1-6,2.1-7.8c2.3-1.8,4.9-2.1,7.5-1.2c3.2,1.1,4.5,4.9,3,8.4
		C473,164.9,470.5,166.4,467.4,166.4z M471.6,159.6c0-2.2-1.2-3.5-3.2-3.5c-2.3,0-4,1.7-4,4.2c0,2.2,1.2,3.5,3.2,3.5
		C469.9,163.8,471.6,162.1,471.6,159.6z"/>
	<path class="st0" d="M232.2,153.6c1.2,0,2.1,0,3.1,0c0.6,3,1.1,5.8,1.7,9.1c0.6-0.9,0.9-1.4,1.2-1.9c1-1.8,2-3.7,3.1-5.5
		c1.2-2.1,1.2-2.1,3.9-1.6c-0.1,0.3-0.1,0.5-0.3,0.7c-2.7,4.5-5.4,9-8,13.5c-0.9,1.6-2.1,2.8-4,3.1c-1.5,0.3-2.7-0.1-3.9-1.2
		c0.5-0.7,0.9-1.3,1.4-2c0.4,0.1,0.7,0.2,1,0.3c2,0.3,3.5-1.3,3.1-3.3C233.9,161.2,233.1,157.5,232.2,153.6z"/>
	<path class="st0" d="M439.9,153.5c1.1,0,1.9,0,2.8,0c0.2,0.3,0.3,0.7,0.4,0.8c1.3-0.4,2.6-0.9,3.9-1c3.1-0.1,4.9,1.8,4.5,4.9
		c-0.3,2.6-1,5.2-1.5,7.9c-1,0-2,0-3.1,0c0.3-1.8,0.7-3.5,1-5.3c0.1-0.8,0.3-1.5,0.4-2.3c0.1-1.5-0.8-2.3-2.3-2.4
		c-1.8-0.1-3.3,0.9-3.8,2.9c-0.5,1.7-0.8,3.5-1.2,5.3c-0.1,0.6-0.3,1.2-0.4,1.9c-1,0-1.9,0-3,0C438.4,161.9,439.1,157.8,439.9,153.5
		z"/>
	<path class="st0" d="M197.2,166.2c-1.1,0-2,0-3.1,0c0.4-2.2,0.8-4.3,1.2-6.4c0.4-2,0.1-2.9-1-3.5c-1.3-0.6-3.2-0.2-4.1,1.2
		c-0.6,0.9-0.9,2-1.2,3.1c-0.5,1.8-0.8,3.7-1.2,5.6c-1,0-1.9,0-3.1,0c0.8-4.3,1.6-8.4,2.5-12.6c1,0,1.9,0,2.8,0
		c0.1,0.3,0.3,0.7,0.4,1.1c1.5-1.1,3.2-1.6,5-1.2c2.4,0.6,3.7,2.3,3.3,4.8C198.3,160.8,197.8,163.4,197.2,166.2z"/>
	<path class="st0" d="M323.9,164c0.4-0.6,0.7-1.1,1.1-1.8c0.9,0.5,1.7,1,2.6,1.3c0.8,0.3,1.6,0.5,2.4,0.4c0.5,0,1.1-0.6,1.4-1
		c0.3-0.7-0.3-1.2-0.9-1.4c-0.8-0.4-1.5-0.7-2.3-1.1c-1.8-0.9-2.5-2-2.4-3.5c0.2-1.6,1.3-2.8,3.1-3.3c2.6-0.7,4.8,0.1,7,1.6
		c-0.5,0.7-0.9,1.3-1.4,2c-0.7-0.3-1.2-0.6-1.8-0.8c-0.7-0.2-1.3-0.5-2-0.5c-0.8-0.1-1.7,0.2-1.7,1.1c0,0.4,0.6,1,1.1,1.3
		c0.8,0.5,1.8,0.8,2.6,1.3c2.6,1.5,2.7,4.7,0,6.2c-0.9,0.5-2,0.7-3,0.7C327.4,166.5,325.8,165.8,323.9,164z"/>
	<path class="st0" d="M494.5,155.1c-0.1,0.4-0.2,0.6-0.3,0.7c-0.3,0.4-0.6,0.8-1,1.3c-0.7-0.3-1.4-0.7-2.1-0.9s-1.5-0.4-2.2-0.3
		c-0.5,0-1.1,0.5-1.2,1c-0.1,0.4,0.4,1,0.8,1.3c0.8,0.5,1.8,0.8,2.6,1.3c1.4,0.7,2.3,1.6,2.2,3.2c-0.1,1.7-1.1,2.8-2.6,3.5
		c-2.5,1-6.1,0.1-8.1-2.1c0.4-0.5,0.7-1.1,1.1-1.6c1.2,0.5,2.2,1.1,3.3,1.5c0.6,0.2,1.3,0.3,1.8,0.1c0.5-0.1,1-0.5,1.2-1
		c0.3-0.7-0.2-1.2-0.8-1.5c-0.8-0.4-1.6-0.8-2.5-1.2c-1.5-0.7-2.3-1.7-2.2-3.4c0.1-1.7,1.1-2.7,2.6-3.2
		C489.9,152.8,492.2,153.6,494.5,155.1z"/>
	<path class="st0" d="M264.9,155.7c-0.7,0.6-1.2,1.1-1.6,1.5c-1.4-0.4-2.7-0.8-3.9-0.9c-1.5-0.1-2.5,0.8-3.2,2
		c-0.7,1.4-0.8,2.8,0.1,4.2c0.8,1.3,2.7,1.7,4.5,1c0.6-0.2,1.1-0.6,1.8-1c0.5,0.4,1,0.8,1.5,1.3c-1.6,2.3-4.7,3.3-7.6,2.5
		c-2.4-0.7-3.8-2.8-3.8-5.6c0-3.2,1.5-5.5,4.2-6.6C259.8,152.8,262.8,153.4,264.9,155.7z"/>
	<path class="st0" d="M513,162.4c0.5,0.5,1,0.9,1.5,1.4c-1.7,2.8-6.6,3.2-8.6,2c-0.8-0.5-1.5-1.1-2-1.8c-1.9-2.7-1-7.2,1.7-9.2
		c3-2.2,7.2-1.8,9.5,0.9c-0.6,0.5-1.2,1.1-1.5,1.4c-1.5-0.4-2.6-0.9-3.8-0.9c-3.2-0.1-4.6,3.7-3.2,6.1c0.8,1.4,2.6,1.8,4.5,1.1
		C511.8,163.2,512.2,162.8,513,162.4z"/>
	<path class="st0" d="M95.2,155.2c0.9-0.4,1.6-0.6,2.2-0.9c0.3,1.6,0.4,1.7-0.9,2.2c-1.5,0.6-2,1.6-2.3,3.2
		c-0.3,2.1-0.8,4.2-1.3,6.5c-1,0-1.9,0-3,0c0.4-2.2,0.8-4.4,1.2-6.7c-0.9,0.3-1.5,0.5-2.3,0.8c-0.3-1.1,0-2,1.1-2.3
		c1.4-0.4,1.9-1.4,2.1-2.7c0.3-2.1,0.8-4.2,1.3-6.5c1,0,1.9,0,3.1,0C96.1,150.8,95.6,152.8,95.2,155.2z"/>
	<path class="st0" d="M275.9,153.5c1,0,1.9,0,2.9,0c0,0.5,0.1,1,0,1.4c-0.7,3.9-1.5,7.8-2.3,11.7c0,0.2-0.1,0.4-0.2,0.6
		c-0.9,3.4-3.3,4.6-6.8,3.3c0.1-0.3,0.1-0.6,0.2-1c0.1-0.3,0.3-0.6,0.5-1.1c2.4,0.2,3.1-1.4,3.4-3.5
		C274.4,161.3,275.1,157.5,275.9,153.5z"/>
	<path class="st0" d="M370.4,153.5c1.1,0,2,0,2.9,0c0.1,0.5,0.1,1,0.2,1.3c1.3-0.6,2.6-1.1,4.3-1.8c-0.1,1.3-0.2,2.1-0.2,3.1
		c-0.5,0.1-0.8,0.3-1.2,0.3c-2.3,0.4-3.7,1.9-4.1,4.2c-0.4,1.8-0.7,3.7-1.1,5.6c-1.1,0-2,0-3.1,0
		C368.6,161.9,369.5,157.7,370.4,153.5z"/>
	<path class="st0" d="M77.2,153.5c1,0,1.9,0,3.1,0c-0.8,4.3-1.7,8.4-2.5,12.6c-1,0-2,0-3.1,0C75.6,161.9,76.3,157.8,77.2,153.5z"/>
	<path class="st0" d="M279.9,149.6c0,1.1-1.2,2.1-2.2,2c-0.9-0.1-1.5-0.7-1.4-1.7c0.1-1.1,1-1.9,2.1-1.9
		C279.4,148,279.9,148.7,279.9,149.6z"/>
	<path class="st0" d="M81.2,149.5c0,1-0.9,2-2,2.1c-0.9,0-1.6-0.6-1.6-1.5c0-1,1-2,2-2.1C80.6,148,81.2,148.6,81.2,149.5z"/>
	<path class="st0" d="M514.6,149.2c-1.6,1.4-2.7,3.1-5.2,2c0.8-1.1,1.5-2.1,2.3-3.2C512.7,148.5,513.5,148.8,514.6,149.2z"/>
	<path class="st0" d="M489,151.3c0.8-1.1,1.5-2.1,2.3-3.2c0.9,0.4,1.8,0.7,2.9,1.2C492.8,150.6,491.6,152.3,489,151.3z"/>
</g>
</svg>
