<?xml version="1.0" standalone="no"?>
<!DOCTYPE svg PUBLIC "-//W3C//DTD SVG 20010904//EN"
 "http://www.w3.org/TR/2001/REC-SVG-20010904/DTD/svg10.dtd">
<svg version="1.0" xmlns="http://www.w3.org/2000/svg"
 width="1719.000000pt" height="1719.000000pt" viewBox="0 0 1719.000000 1719.000000"
 preserveAspectRatio="xMidYMid meet">
<metadata>
Created by potrace 1.14, written by Peter Selinger 2001-2017
</metadata>
<g transform="translate(0.000000,1719.000000) scale(0.100000,-0.100000)"
fill="#000000" stroke="none">
<path d="M3697 11164 c-1 -1 -49 -3 -107 -5 -58 -1 -116 -6 -130 -9 l-25 -6 0
-2556 0 -2556 40 -5 c67 -8 583 -2 592 7 4 4 8 1028 7 2274 -1 2197 -3 2799
-12 2834 -3 12 -16 16 -50 17 -26 1 -107 2 -180 4 -73 2 -134 2 -135 1z"/>
<path d="M2629 11112 c-4 -361 1 -5075 6 -5080 9 -9 515 -12 574 -3 l43 6 0
2510 c0 1381 -1 2533 -1 2561 l-1 52 -310 0 -310 0 -1 -46z"/>
<path d="M13116 8601 c0 -1407 4 -2562 7 -2568 8 -12 594 -13 612 -1 7 4 10
867 10 2565 l0 2558 -315 1 -315 2 1 -2557z"/>
<path d="M13941 11140 c-6 -16 -7 -4359 -1 -4823 3 -158 8 -281 14 -284 13 -9
596 -9 609 -1 9 5 11 594 10 2320 -1 1272 -3 2423 -5 2558 l-3 245 -309 0
c-266 0 -309 -2 -315 -15z"/>
<path d="M1810 8592 l0 -2037 317 0 316 0 0 2025 c-1 1114 -2 2031 -2 2038 -1
9 -71 12 -316 12 l-315 0 0 -2038z"/>
<path d="M14757 10623 c-2 -5 -3 -921 -3 -2038 l1 -2030 315 0 315 0 2 2038 2
2037 -314 0 c-173 0 -316 -3 -318 -7z"/>
<path d="M1013 10102 c-13 -2 -23 -9 -24 -15 -5 -95 0 -3000 5 -3005 7 -7 420
-10 554 -4 l72 4 0 1509 0 1509 -32 1 c-184 2 -558 3 -575 1z"/>
<path d="M15574 10095 c-2 -5 -2 -685 -1 -1510 l2 -1500 310 0 309 0 4 40 c2
22 4 504 4 1070 1 1077 -6 1893 -17 1903 -11 11 -607 8 -611 -3z"/>
<path d="M307 8874 c-1 -1 -69 -4 -152 -7 -82 -4 -150 -6 -150 -7 0 0 0 -121
0 -270 0 -173 4 -270 10 -271 5 0 19 -3 30 -6 24 -5 595 -5 675 1 30 2 65 4
78 5 l22 1 0 269 c0 206 -3 270 -12 273 -20 7 -494 18 -501 12z"/>
<path d="M16607 8874 c-1 -1 -51 -4 -112 -8 -60 -3 -111 -5 -113 -6 -1 0 -1
-123 0 -272 l3 -273 403 0 402 0 0 277 0 278 -42 1 c-69 2 -540 4 -541 3z"/>
<path d="M4618 8780 c-9 -6 -29 -49 -44 -96 -25 -81 -26 -87 -11 -119 9 -18
19 -49 22 -69 8 -39 17 -50 58 -65 23 -9 31 -7 58 17 l31 28 -1 134 c-2 123
-4 136 -23 157 -22 24 -61 29 -90 13z"/>
<path d="M12535 8778 c-41 -22 -45 -38 -45 -166 0 -123 0 -124 29 -153 55 -55
109 -31 125 55 3 16 12 39 21 52 20 31 19 45 -10 128 -34 93 -65 115 -120 84z"/>
<path d="M4766 8693 c-3 -4 -6 -33 -6 -65 0 -82 18 -99 102 -93 35 2 1751 4
3815 4 l3751 1 21 25 c22 29 20 70 -5 95 -13 13 -451 15 -3817 16 -2768 0
-3809 3 -3828 12 -15 6 -30 8 -33 5z"/>
</g>
</svg>
